<?xml version="1.0" standalone="no"?>
<!DOCTYPE svg PUBLIC "-//W3C//DTD SVG 20010904//EN"
 "http://www.w3.org/TR/2001/REC-SVG-20010904/DTD/svg10.dtd">
<svg version="1.0" xmlns="http://www.w3.org/2000/svg"
 width="514.000000pt" height="298.000000pt" viewBox="0 0 514.000000 298.000000"
 preserveAspectRatio="xMidYMid meet">
<metadata>
Created by potrace 1.16, written by Peter Selinger 2001-2019
</metadata>
<g transform="translate(0.000000,298.000000) scale(0.100000,-0.100000)"
fill="#000000" stroke="none">
<path d="M2240 2953 c1 -5 16 -80 33 -168 l33 -160 110 -11 c139 -15 217 -36
325 -90 182 -91 310 -218 402 -399 49 -99 76 -196 89 -327 6 -62 11 -114 12
-115 3 -3 275 -63 287 -63 9 0 10 37 6 138 -8 210 -49 374 -132 535 -183 356
-527 601 -915 653 -114 15 -250 19 -250 7z"/>
<path d="M2324 2523 c2 -10 10 -50 16 -89 l11 -71 45 -7 c24 -3 55 -8 69 -12
l25 -6 0 95 0 94 -52 7 c-94 11 -120 8 -114 -11z"/>
<path d="M2570 2410 l0 -100 62 -31 61 -31 70 70 69 69 -60 37 c-49 29 -178
86 -197 86 -3 0 -5 -45 -5 -100z"/>
<path d="M2821 2266 l-64 -64 54 -61 c29 -34 55 -61 57 -61 10 0 142 114 142
122 0 15 -100 128 -114 128 -6 0 -40 -29 -75 -64z"/>
<path d="M2175 2267 c-115 -30 -241 -107 -304 -186 l-32 -40 83 -71 c259 -221
596 -368 912 -396 l79 -7 -6 124 c-6 138 -27 213 -83 309 -64 109 -189 210
-313 254 -71 24 -262 32 -336 13z m270 -92 c192 -50 336 -216 364 -416 l8 -59
-37 0 -36 0 -11 66 c-31 177 -169 313 -350 345 -63 11 -63 11 -63 45 0 32 2
34 33 34 18 0 59 -7 92 -15z"/>
<path d="M2978 2074 c-38 -30 -68 -59 -68 -65 0 -5 7 -23 15 -39 l16 -30 99 0
100 0 -27 72 c-26 73 -50 118 -62 117 -3 0 -36 -25 -73 -55z"/>
<path d="M1730 1748 l0 -292 78 74 c208 202 242 235 242 242 0 3 -42 38 -92
76 -51 38 -120 97 -153 131 -33 34 -63 61 -67 61 -5 0 -8 -132 -8 -292z"/>
<path d="M2975 1818 c14 -98 13 -95 58 -101 23 -3 61 -9 85 -13 l43 -7 -3 79
-3 79 -93 3 -94 3 7 -43z"/>
<path d="M2150 1597 c0 -84 -4 -118 -15 -133 -22 -30 -19 -80 7 -98 19 -14 74
-16 395 -16 l373 0 0 68 0 69 -96 12 c-191 25 -374 79 -563 167 -52 24 -96 44
-97 44 -2 0 -4 -51 -4 -113z"/>
<path d="M1959 1573 l-106 -108 13 -74 c7 -40 15 -75 17 -77 1 -2 45 38 95 89
l93 93 -3 92 -3 92 -106 -107z"/>
<path d="M2990 1613 c0 -35 8 -46 96 -133 246 -245 343 -449 360 -762 l7 -118
130 0 129 0 -6 78 c-15 173 -54 327 -111 444 -59 121 -128 211 -270 354 l-140
141 -80 12 c-44 7 -88 15 -97 17 -15 4 -18 -1 -18 -33z"/>
<path d="M1949 1272 l-96 -97 -11 -77 c-24 -159 -98 -323 -202 -448 l-42 -50
184 0 c134 0 196 4 233 15 61 19 145 75 180 121 35 46 72 129 80 182 6 37 3
49 -20 83 -49 75 -54 145 -20 257 7 21 5 22 -44 22 -62 0 -102 19 -128 59
l-19 31 -95 -98z"/>
<path d="M2430 1272 c0 -11 94 -70 158 -99 111 -50 187 -65 355 -70 89 -3 157
-2 157 4 0 4 -37 45 -83 91 l-82 82 -253 0 c-138 0 -252 -3 -252 -8z"/>
<path d="M2305 1226 c-8 -19 -15 -60 -15 -90 0 -46 6 -62 40 -114 76 -114 99
-243 66 -370 l-13 -52 381 0 381 0 -77 78 c-125 127 -175 209 -193 315 -5 34
-9 37 -38 37 -79 1 -277 65 -362 118 -22 14 -66 45 -98 69 l-57 44 -15 -35z"/>
<path d="M480 530 c0 -5 9 -14 20 -20 19 -10 20 -21 20 -210 0 -110 3 -200 7
-200 3 0 14 7 23 15 15 13 20 13 49 -1 92 -46 184 49 167 174 -14 103 -78 147
-156 107 l-30 -16 0 81 0 80 -50 0 c-27 0 -50 -4 -50 -10z m206 -175 c20 -30
22 -152 2 -192 -10 -21 -21 -29 -46 -31 -54 -5 -62 9 -62 108 0 73 3 92 21
114 26 33 63 34 85 1z"/>
<path d="M3010 529 c0 -6 9 -13 19 -16 27 -7 31 -29 31 -205 0 -129 -3 -159
-16 -172 -36 -37 -51 -15 -129 186 -38 101 -74 183 -79 183 -4 0 -39 -81 -77
-180 -38 -99 -76 -185 -84 -191 -27 -20 -16 -29 40 -30 39 0 55 4 55 13 0 7
-9 13 -19 13 -30 0 -34 16 -16 70 l17 50 64 0 c35 0 64 -2 64 -5 0 -2 9 -27
20 -56 l20 -51 -20 -5 c-11 -3 -20 -10 -20 -17 0 -7 44 -12 140 -14 95 -2 140
0 140 7 0 6 -4 11 -9 11 -5 0 -17 7 -25 16 -13 13 -16 46 -16 210 l0 194 -50
0 c-30 0 -50 -4 -50 -11z"/>
<path d="M4470 530 c0 -5 9 -14 20 -20 16 -8 20 -21 20 -58 l0 -47 -55 0 c-48
0 -58 -4 -87 -32 -30 -30 -33 -39 -36 -107 -4 -79 11 -126 47 -146 27 -14 104
-13 119 2 9 9 12 9 12 0 0 -8 18 -12 50 -12 38 0 50 4 50 15 0 8 -6 15 -14 15
-23 0 -26 24 -26 216 l0 184 -50 0 c-27 0 -50 -4 -50 -10z m18 -156 c20 -14
22 -23 22 -110 0 -81 -3 -97 -20 -114 -57 -57 -109 20 -98 142 4 40 12 57 32
75 32 27 35 28 64 7z"/>
<path d="M2432 507 c-11 -12 -24 -41 -28 -65 -5 -32 -11 -42 -25 -42 -11 0
-19 -4 -19 -10 0 -5 9 -10 20 -10 19 0 20 -7 20 -119 0 -111 -1 -120 -20 -126
-43 -14 -16 -25 60 -25 78 0 103 11 58 26 -13 4 -26 12 -30 18 -4 6 -8 59 -8
119 l0 107 30 0 c17 0 30 5 30 10 0 6 -13 10 -30 10 -28 0 -30 2 -30 38 0 36
22 82 40 82 5 0 8 -12 7 -27 -2 -25 1 -28 28 -28 33 0 45 25 25 50 -20 25
-102 19 -128 -8z"/>
<path d="M20 490 c0 -5 9 -10 20 -10 19 0 20 -7 20 -175 0 -168 -1 -175 -20
-175 -11 0 -20 -7 -20 -15 0 -13 23 -15 145 -15 l145 0 0 65 c0 69 -14 87 -25
32 -12 -53 -31 -67 -95 -67 -56 0 -58 1 -64 31 -8 41 -8 247 0 288 5 21 12 31
25 31 11 0 19 5 19 10 0 6 -32 10 -75 10 -43 0 -75 -4 -75 -10z"/>
<path d="M2058 475 c-57 -39 -81 -99 -77 -195 4 -87 19 -117 80 -158 29 -20
44 -23 99 -20 112 6 161 62 168 193 6 130 -57 205 -172 205 -49 0 -69 -5 -98
-25z m150 -15 c41 -39 56 -81 56 -160 0 -58 -5 -85 -22 -117 -68 -130 -202
-50 -202 120 0 56 28 134 57 156 33 27 83 27 111 1z"/>
<path d="M330 400 c0 -5 9 -14 20 -20 18 -10 20 -21 20 -125 0 -105 -2 -114
-20 -120 -41 -13 -18 -25 50 -25 39 0 70 3 70 8 0 4 -9 15 -20 25 -18 15 -20
29 -20 142 l0 125 -50 0 c-27 0 -50 -4 -50 -10z"/>
<path d="M800 396 c0 -7 9 -16 20 -19 18 -5 20 -14 20 -116 0 -100 -2 -111
-20 -121 -38 -21 -20 -30 60 -30 83 0 102 11 50 29 l-30 10 0 81 c0 85 15 131
48 149 15 8 18 5 17 -17 0 -22 5 -28 27 -30 35 -4 48 30 22 59 -23 25 -62 24
-91 -3 l-23 -21 0 21 c0 20 -5 22 -50 22 -36 0 -50 -4 -50 -14z"/>
<path d="M1092 390 c-27 -16 -33 -26 -30 -48 2 -21 9 -28 31 -30 32 -4 46 21
29 48 -9 14 -8 19 4 24 41 16 74 -9 74 -53 0 -34 -13 -46 -70 -66 -24 -9 -52
-23 -62 -32 -24 -22 -24 -85 0 -106 23 -21 81 -22 108 -3 16 13 21 13 36 0 22
-20 82 -15 86 8 2 12 -2 15 -17 11 -18 -5 -19 1 -23 112 -3 109 -5 118 -27
136 -31 25 -96 25 -139 -1z"/>
<path d="M1310 400 c0 -5 9 -14 20 -20 18 -10 20 -21 20 -124 0 -105 -1 -114
-20 -119 -11 -3 -20 -10 -20 -16 0 -7 29 -11 80 -11 78 0 103 11 58 26 -33 10
-38 21 -38 99 0 47 6 81 18 104 21 42 39 50 44 19 4 -32 61 -34 66 -2 7 50
-55 70 -102 33 l-26 -20 0 20 c0 18 -6 21 -50 21 -27 0 -50 -4 -50 -10z"/>
<path d="M1540 398 c0 -6 6 -16 14 -22 8 -6 37 -67 66 -136 51 -125 51 -126
35 -163 l-16 -38 -19 23 c-15 19 -22 21 -37 12 -10 -6 -18 -22 -18 -35 0 -20
6 -24 36 -27 24 -2 40 3 51 15 9 10 42 88 73 173 32 85 66 165 78 178 l20 22
-51 0 c-29 0 -52 -4 -52 -10 0 -5 6 -10 14 -10 8 0 17 -4 20 -9 5 -8 -14 -72
-44 -146 l-12 -30 -34 85 c-18 47 -33 88 -34 91 0 4 10 9 22 12 33 9 20 14
-49 20 -41 3 -63 1 -63 -5z"/>
<path d="M3251 398 c-45 -24 -65 -64 -69 -136 -2 -54 1 -73 18 -100 21 -34 72
-62 112 -62 32 0 85 34 93 60 10 32 0 34 -28 6 -54 -54 -125 -18 -134 68 l-6
46 88 0 88 0 -6 41 c-3 23 -14 51 -25 62 -25 24 -98 33 -131 15z"/>
<path d="M3440 396 c0 -8 4 -16 8 -18 4 -1 27 -31 51 -65 l43 -61 -42 -55
c-22 -31 -48 -58 -56 -61 -33 -13 -10 -26 46 -26 59 0 83 16 40 27 -26 7 -25
22 4 61 l23 32 27 -41 c20 -29 24 -44 17 -53 -16 -20 -3 -26 56 -26 55 0 65 8
37 31 -17 14 -94 124 -94 134 0 11 53 79 79 102 l26 23 -52 0 c-29 0 -53 -4
-53 -10 0 -5 7 -10 15 -10 21 0 19 -11 -9 -49 l-24 -33 -26 38 c-19 28 -22 40
-14 45 18 11 9 16 -49 23 -43 5 -53 4 -53 -8z"/>
<path d="M3785 400 c-53 -21 -61 -83 -12 -88 32 -4 46 21 29 48 -9 14 -8 19 4
24 41 16 74 -9 74 -54 0 -32 -5 -37 -74 -65 -27 -11 -58 -32 -69 -46 -17 -23
-18 -31 -8 -62 7 -19 19 -38 27 -41 28 -11 79 -6 101 9 19 13 22 13 27 0 5
-15 51 -20 80 -9 23 9 20 33 -3 27 -17 -4 -19 4 -23 104 -3 59 -8 115 -12 124
-14 33 -92 50 -141 29z"/>
<path d="M3990 396 c0 -7 9 -16 20 -19 19 -5 20 -14 20 -120 0 -106 -1 -115
-20 -120 -11 -3 -20 -10 -20 -16 0 -7 26 -11 70 -11 73 0 84 6 50 28 -17 11
-20 23 -20 95 0 101 22 147 69 147 38 0 41 -11 41 -135 0 -82 -3 -104 -15
-109 -35 -13 -11 -26 50 -26 66 0 81 10 45 30 -18 10 -20 21 -20 116 0 98 -2
107 -25 129 -30 31 -82 33 -119 4 l-26 -20 0 20 c0 18 -6 21 -50 21 -36 0 -50
-4 -50 -14z"/>
<path d="M4709 395 c-47 -25 -64 -63 -64 -142 0 -57 4 -77 21 -100 25 -34 90
-59 128 -49 30 7 86 57 86 75 0 19 -22 12 -42 -15 -16 -20 -28 -24 -56 -22
-43 4 -71 38 -79 96 l-6 42 87 0 86 0 0 36 c0 75 -89 118 -161 79z"/>
<path d="M4910 395 c0 -8 6 -15 14 -15 21 0 26 -23 26 -130 0 -89 -2 -100 -20
-110 -38 -20 -20 -30 55 -30 77 0 97 12 50 30 -24 9 -25 13 -25 98 0 75 3 93
21 116 21 27 42 35 34 14 -8 -21 11 -40 36 -36 16 2 25 11 27 26 7 49 -44 68
-93 36 -23 -15 -25 -15 -25 0 0 13 -11 16 -50 16 -38 0 -50 -4 -50 -15z"/>
</g>
</svg>
